<?xml version="1.0"?>
<svg xmlns="http://www.w3.org/2000/svg" id="Capa_1" enable-background="new 0 0 512.003 512.003" height="512px" viewBox="0 0 512.003 512.003" width="512px"><g><g id="XMLID_1089_"><g id="XMLID_13_"><path id="XMLID_15_" d="m495.459 117.183c-.445-13.965-9.819-26.521-23.326-31.246l-40.063-14.013c-38.826-47.728-89.596-71.924-150.947-71.924-29.15 0-57.764 5.465-85.046 16.242-13.325 5.265-27.892 5.563-41.017.844-10.371-3.729-21.258-5.621-32.357-5.621-38.273 0-72.848 22.7-88.085 57.833-1.547 3.567-.886 7.709 1.696 10.617 2.583 2.909 6.619 4.057 10.342 2.942 14.71-4.396 30.216-4.285 44.84.326 2.248.709 3.067 2.444 3.354 3.416.24.811.622 2.908-1.006 4.883-29.677 35.982-49.691 79.119-57.878 124.744-.976 5.437 2.641 10.634 8.077 11.609.598.107 1.191.159 1.778.159 4.749-.001 8.963-3.397 9.831-8.235 7.582-42.255 26.124-82.212 53.622-115.553 5.367-6.508 7.144-15.212 4.754-23.285-2.373-8.015-8.547-14.299-16.518-16.812-11.079-3.493-22.558-4.941-33.978-4.34 14.207-17.63 35.82-28.305 59.171-28.305 8.785 0 17.395 1.494 25.589 4.441 17.704 6.367 37.284 5.987 55.132-1.062 24.934-9.849 51.076-14.843 77.699-14.843 55.908 0 102.038 22.418 137.109 66.633 1.175 1.482 2.747 2.6 4.533 3.225l42.764 14.958c5.762 2.015 9.756 7.241 9.939 13.004.123 3.856-1.283 7.501-3.958 10.263-2.677 2.764-6.27 4.286-10.116 4.286h-47.834c-43.918 0-85.336 7.004-123.288 20.805-1.194-2.372-2.48-4.712-3.871-7.011-2.861-4.723-9.011-6.233-13.733-3.374-4.725 2.86-6.235 9.009-3.375 13.733 16.926 27.954 15.616 63.215-3.338 89.83-7.222 10.14-16.536 18.374-27.227 24.236 9.374-30.099 1.292-66.334-13.779-93.649-2.667-4.835-8.751-6.591-13.586-3.925-4.836 2.668-6.593 8.751-3.925 13.587 1.644 2.98 3.189 6.083 4.628 9.273-27.163 21.196-48.633 46.708-63.867 75.944-17.262 33.129-26.015 70.149-26.015 110.034 0 7.845 3.424 15.264 9.394 20.353 5.971 5.09 13.839 7.296 21.586 6.054l28.834-4.627c11.602-1.864 23.237.906 32.758 7.795 6.759 4.89 11.879 11.44 14.947 18.981l-52.547 8.431c-10.77 1.729-21.739-.589-30.88-6.524-6.312-4.101-14.053-5.236-21.235-3.13-7.142 2.098-12.997 7.203-16.065 14.008-4.621 10.25-12.83 18.464-23.114 23.127l-48.47 21.976c-1.604-7.981-.951-16.27 1.986-24.079 4.137-10.999 12.31-19.729 23.013-24.582l18.24-8.27c8.278-3.753 14.358-10.948 16.681-19.739 2.308-8.738.591-17.932-4.71-25.223-18.616-25.604-30.561-52.083-36.516-80.952-1.116-5.409-6.409-8.89-11.814-7.773-5.409 1.116-8.889 6.405-7.773 11.814 6.452 31.274 19.886 61.107 39.928 88.673 2.397 3.297 2 6.648 1.549 8.354-.78 2.954-2.822 5.371-5.603 6.632l-18.239 8.27c-15.569 7.058-27.457 19.757-33.474 35.757-6.018 16-5.444 33.386 1.615 48.953 1.673 3.691 5.309 5.874 9.113 5.874 1.381 0 2.784-.288 4.124-.896l58.612-26.573c14.716-6.673 26.466-18.436 33.087-33.121.914-2.026 2.565-2.773 3.468-3.039.928-.271 2.773-.541 4.708.714 13.306 8.642 29.268 12.014 44.94 9.499l63.542-10.195c5.453-.875 9.164-6.005 8.289-11.458-2.708-16.878-11.826-31.691-25.676-41.711-13.849-10.021-30.77-14.041-47.65-11.339l-28.833 4.627c-2.672.431-4.559-.772-5.444-1.526s-2.369-2.424-2.369-5.132c0-67.315 26.561-124.436 76.986-166.048 6.286 23.672 5.42 48.966-8.941 66.644-2.667 3.283-2.98 7.889-.783 11.502 1.838 3.022 5.101 4.805 8.542 4.805.673 0 1.353-.068 2.031-.209 25.204-5.222 47.303-19.638 62.227-40.593 18.065-25.366 23.235-57.039 15.212-86.109 35.661-12.918 74.663-19.476 116.103-19.476h47.835c9.309 0 18.003-3.683 24.481-10.37 6.473-6.689 9.876-15.501 9.58-24.818z" data-original="#000000" class="active-path" data-old_color="#000000" fill="#FFFFFF"/><path id="XMLID_52_" d="m346.521 95.689c1.86-1.859 2.93-4.439 2.93-7.069s-1.07-5.21-2.93-7.07-4.44-2.93-7.07-2.93-5.21 1.069-7.07 2.93c-1.86 1.86-2.93 4.44-2.93 7.07s1.07 5.21 2.93 7.069c1.86 1.86 4.44 2.931 7.07 2.931s5.211-1.07 7.07-2.931z" data-original="#000000" class="active-path" data-old_color="#000000" fill="#FFFFFF"/><path id="XMLID_53_" d="m48.892 269.76c1.86-1.86 2.93-4.44 2.93-7.07s-1.07-5.21-2.93-7.069c-1.86-1.86-4.44-2.931-7.07-2.931s-5.21 1.07-7.08 2.931c-1.86 1.859-2.92 4.439-2.92 7.069s1.06 5.21 2.92 7.07c1.87 1.86 4.45 2.93 7.08 2.93s5.199-1.07 7.07-2.93z" data-original="#000000" class="active-path" data-old_color="#000000" fill="#FFFFFF"/></g></g></g> </svg>
